<?xml version="1.0" standalone="no"?>
<!DOCTYPE svg PUBLIC "-//W3C//DTD SVG 20010904//EN"
 "http://www.w3.org/TR/2001/REC-SVG-20010904/DTD/svg10.dtd">
<svg version="1.0" xmlns="http://www.w3.org/2000/svg"
 width="3072.000000pt" height="4096.000000pt" viewBox="0 0 3072.000000 4096.000000"
 preserveAspectRatio="xMidYMid meet">

<g transform="translate(0.000000,4096.000000) scale(0.100000,-0.100000)"
fill="#000000" stroke="none">
<path d="M0 20480 l0 -20480 15360 0 15360 0 0 20480 0 20480 -15360 0 -15360
0 0 -20480z m13774 16204 c28 -30 34 -44 39 -100 4 -36 12 -75 19 -88 7 -13
24 -43 37 -67 13 -23 65 -82 115 -130 144 -138 173 -220 161 -459 -8 -153 1
-202 59 -350 58 -145 60 -153 41 -213 -9 -28 -20 -61 -25 -72 -4 -11 -18 -51
-30 -90 -13 -38 -29 -79 -36 -90 -19 -27 -18 -129 1 -145 12 -10 21 -8 50 10
36 22 48 12 20 -16 -8 -9 -15 -24 -15 -34 0 -10 7 -25 15 -34 8 -8 15 -25 15
-38 1 -19 2 -20 10 -7 8 14 13 96 9 149 -2 30 13 116 27 153 8 21 14 74 14
122 0 46 4 86 9 89 5 3 12 20 15 38 4 22 25 51 62 87 l55 54 -3 57 c-1 32 2
64 8 71 6 8 14 25 17 39 7 25 91 120 107 120 5 0 22 -11 38 -25 34 -28 48 -72
51 -154 1 -29 3 -32 16 -21 9 7 17 11 18 9 54 -92 75 -406 36 -555 -21 -79
-46 -150 -77 -213 -35 -71 -147 -120 -209 -92 -23 10 -29 9 -46 -8 -16 -15
-22 -40 -28 -113 -4 -51 -12 -138 -18 -193 -6 -55 -11 -191 -11 -303 0 -238
-4 -229 116 -249 108 -19 127 -32 191 -131 31 -48 59 -89 62 -92 3 -3 24 -27
47 -55 71 -87 122 -172 139 -232 9 -31 26 -70 37 -86 31 -43 93 -77 151 -83
62 -6 216 -41 272 -61 22 -8 75 -28 117 -43 42 -15 122 -58 177 -95 56 -36
136 -82 178 -101 43 -20 137 -64 208 -99 72 -35 146 -68 165 -74 19 -6 69 -22
110 -36 41 -14 101 -32 133 -40 125 -32 286 -127 405 -237 55 -51 163 -172
218 -243 21 -28 49 -59 63 -70 74 -57 199 -207 267 -320 37 -60 112 -234 121
-278 4 -17 12 -43 20 -57 7 -14 13 -30 13 -36 0 -6 15 -60 34 -120 39 -127 60
-284 58 -436 -1 -73 3 -121 13 -150 8 -24 15 -54 15 -68 0 -14 9 -45 20 -69
11 -24 20 -55 20 -70 1 -14 8 -44 16 -66 17 -46 39 -161 55 -285 14 -111 6
-460 -16 -710 -10 -107 -18 -211 -18 -230 0 -60 37 -444 54 -545 5 -33 11
-130 14 -216 2 -86 9 -178 15 -205 6 -27 17 -94 25 -149 15 -105 35 -227 60
-360 38 -197 39 -217 37 -700 -1 -365 -5 -503 -16 -575 -19 -122 -52 -368 -66
-490 -6 -52 -19 -113 -29 -136 -23 -52 -38 -142 -51 -309 -9 -115 -13 -133
-37 -168 -31 -44 -30 -51 30 -197 40 -98 53 -160 38 -188 -7 -14 -29 -22 -81
-31 -52 -8 -105 -28 -198 -75 -139 -70 -143 -74 -168 -176 -37 -157 -124 -442
-150 -493 -8 -16 -14 -39 -14 -52 0 -14 -7 -45 -16 -71 -14 -43 -14 -52 0 -98
8 -28 18 -107 22 -176 6 -109 4 -140 -16 -234 -20 -92 -30 -119 -70 -180 -25
-39 -64 -84 -86 -100 -21 -16 -87 -79 -146 -139 -109 -111 -128 -142 -128
-212 0 -52 58 -106 205 -193 50 -29 126 -111 147 -159 24 -55 42 -219 42 -383
0 -127 -28 -502 -38 -519 -10 -16 13 -120 36 -165 18 -33 20 -50 15 -120 -3
-47 -14 -99 -25 -124 -18 -41 -19 -64 -15 -410 3 -278 1 -411 -11 -547 -27
-308 -36 -399 -46 -440 -35 -151 -83 -313 -111 -371 l-32 -69 8 -135 c11 -196
11 -216 -7 -316 -17 -95 -28 -125 -60 -159 -10 -11 -35 -38 -56 -60 -21 -23
-44 -55 -51 -73 -23 -56 -16 -361 15 -600 8 -62 14 -133 14 -157 0 -24 7 -70
15 -102 8 -32 19 -113 25 -181 5 -67 14 -142 19 -165 5 -23 15 -123 22 -222
14 -203 4 -445 -31 -775 -24 -227 -26 -303 -5 -320 8 -7 15 -18 15 -25 0 -7
32 -74 70 -149 74 -145 94 -191 114 -271 7 -27 25 -88 39 -135 38 -124 92
-340 117 -464 6 -27 10 -127 10 -223 l0 -174 31 -62 c17 -34 42 -74 56 -88 22
-24 65 -122 98 -226 8 -24 17 -71 20 -105 4 -34 11 -70 16 -79 20 -38 40 -151
49 -274 5 -71 14 -157 19 -190 14 -82 29 -192 42 -305 15 -139 39 -280 54
-321 8 -20 19 -103 25 -185 6 -82 18 -194 26 -249 8 -55 19 -170 24 -255 5
-85 16 -207 24 -270 8 -63 18 -218 20 -345 3 -126 10 -293 16 -370 5 -77 15
-363 20 -635 6 -272 15 -517 21 -545 15 -80 23 -750 9 -815 -6 -30 -15 -100
-20 -155 -4 -55 -18 -134 -30 -175 -29 -101 -24 -137 38 -240 45 -74 54 -99
72 -195 11 -60 27 -142 36 -180 11 -46 15 -100 12 -155 -3 -73 -10 -97 -43
-168 -26 -57 -41 -80 -49 -72 -24 24 -88 -1 -181 -70 -68 -51 -131 -80 -176
-80 -40 0 -137 -34 -212 -74 -27 -15 -77 -30 -112 -35 -35 -5 -72 -14 -83 -20
-24 -13 -138 -15 -146 -2 -8 12 -106 46 -216 75 -52 13 -131 37 -175 54 -127
46 -182 57 -211 41 -21 -11 -26 -10 -39 7 -24 32 -29 83 -12 138 8 28 18 93
22 144 4 51 13 109 21 127 8 19 14 63 14 97 0 67 -15 108 -135 378 -80 180
-102 254 -119 400 -21 190 -36 470 -30 565 4 55 1 104 -10 155 -11 52 -16 128
-16 245 0 109 -7 227 -20 329 -11 88 -20 190 -20 226 0 36 -5 71 -10 76 -6 6
-15 99 -20 208 -8 145 -14 206 -26 228 -13 26 -17 82 -20 327 -7 422 -31 592
-107 753 -24 51 -51 116 -60 143 -16 53 -38 412 -30 495 3 31 -2 65 -16 105
-12 33 -21 71 -21 85 0 37 -65 138 -127 197 -50 48 -56 51 -70 37 -34 -33 -43
-172 -17 -248 12 -36 15 -64 10 -110 -4 -33 -9 -97 -11 -141 -1 -44 -8 -141
-14 -215 -7 -74 -11 -259 -10 -410 1 -151 -1 -374 -6 -495 -4 -121 -8 -249 -9
-285 -5 -203 -20 -389 -32 -419 -9 -20 -16 -84 -19 -150 -2 -64 -11 -143 -19
-176 -9 -34 -16 -103 -16 -158 0 -63 -5 -110 -14 -130 -29 -64 -27 -210 5
-372 5 -27 11 -126 13 -220 3 -153 6 -174 26 -213 21 -40 22 -47 10 -100 -6
-32 -11 -64 -10 -72 7 -47 -1 -88 -17 -92 -34 -9 -43 2 -43 55 0 29 -5 59 -10
67 -8 13 -11 13 -26 -2 -22 -22 -53 -109 -65 -182 -5 -32 -16 -78 -24 -103 -8
-24 -15 -52 -15 -62 0 -10 -7 -32 -15 -47 -8 -16 -15 -36 -15 -45 0 -9 -7 -22
-15 -29 -18 -15 -19 -43 -3 -70 7 -10 9 -23 5 -27 -12 -11 -40 10 -55 40 -12
24 -19 27 -67 27 -32 0 -59 -5 -67 -14 -8 -7 -30 -22 -48 -32 -31 -17 -56 -19
-205 -18 -178 1 -319 20 -470 64 -38 11 -91 24 -117 30 -67 13 -168 64 -208
104 -28 28 -43 35 -73 36 -38 0 -84 25 -119 65 -24 27 -22 42 8 82 83 110 135
254 114 319 -7 20 -12 228 -14 550 -2 367 -6 529 -15 554 -15 45 -32 188 -37
310 -2 52 -10 127 -18 165 -13 66 -39 237 -56 370 -4 34 -14 83 -23 110 -8 28
-18 97 -21 155 -4 58 -13 132 -21 165 -8 33 -17 128 -21 210 -3 83 -10 164
-15 180 -5 17 -11 62 -14 100 -8 106 -24 214 -40 275 -11 40 -15 113 -15 270
0 171 -3 221 -15 244 -35 66 -87 337 -79 406 2 19 7 89 10 155 6 115 5 122
-17 154 -21 30 -137 111 -159 111 -9 0 -133 136 -139 153 -2 7 -16 30 -32 53
-32 47 -76 150 -90 213 -5 24 -14 96 -19 160 -5 64 -16 133 -24 153 -9 21 -16
51 -16 67 0 17 -11 63 -24 103 -13 40 -29 107 -35 148 -13 77 -31 172 -51 270
-6 30 -18 93 -26 140 -33 193 -80 425 -90 442 -3 5 -10 37 -15 71 -9 69 -40
243 -64 357 -8 41 -37 158 -64 260 -27 102 -57 221 -67 265 -9 44 -37 157 -61
250 -25 94 -55 219 -69 278 -13 59 -28 117 -34 128 -6 11 -17 57 -25 102 -47
282 -93 514 -119 607 -9 30 -16 69 -16 88 0 18 -5 42 -10 52 -6 10 -15 53 -21
95 -5 42 -23 104 -38 138 -16 34 -41 89 -56 122 -71 156 -120 269 -130 303
-19 64 -71 159 -109 201 -45 48 -96 123 -96 141 0 20 31 9 42 -15 6 -14 17
-25 23 -25 34 0 24 108 -12 142 -22 21 -37 24 -145 28 -103 4 -122 8 -134 24
-37 51 -69 78 -126 107 -40 20 -86 55 -124 95 -34 35 -67 64 -73 64 -7 0 -11
-22 -11 -59 0 -33 -5 -63 -10 -66 -18 -11 -10 -22 21 -29 28 -5 30 -8 24 -35
-5 -22 -1 -35 14 -50 12 -12 28 -21 36 -21 7 0 18 -6 22 -13 4 -6 34 -21 66
-31 41 -14 56 -24 52 -34 -3 -7 -5 -18 -5 -23 0 -18 -31 -9 -54 16 -33 36 -42
31 -38 -20 4 -40 2 -46 -22 -55 -27 -10 -35 -35 -13 -43 18 -6 37 3 37 19 0 8
7 14 15 14 8 0 15 -4 15 -10 0 -5 11 -12 25 -16 31 -8 115 -75 131 -106 9 -16
9 -27 2 -36 -8 -9 -8 -24 1 -51 14 -47 14 -78 1 -86 -19 -12 -75 15 -95 45
-11 17 -27 32 -36 35 -17 6 -89 79 -89 91 0 8 -54 66 -109 117 -61 57 -136
145 -157 182 -6 12 -15 41 -19 65 -4 25 -13 59 -20 75 -7 17 -25 69 -40 118
-15 48 -34 91 -43 96 -13 7 -17 25 -18 70 0 36 -6 67 -15 77 -9 11 -14 45 -15
101 -1 47 -6 88 -10 93 -5 5 -20 10 -34 12 -55 7 -28 82 43 114 20 9 37 23 37
31 0 7 9 13 20 13 13 0 26 13 37 38 19 39 20 40 99 55 47 9 53 8 94 -19 36
-24 40 -29 24 -34 -10 -3 -33 -14 -51 -25 -30 -18 -32 -23 -26 -61 5 -41 5
-42 -32 -50 -52 -13 -65 -35 -42 -73 19 -33 11 -65 -26 -107 -18 -22 -18 -22
27 -53 l45 -31 6 37 c10 58 44 139 68 161 51 47 130 92 162 92 37 0 33 17 58
-230 8 -69 18 -134 24 -145 6 -11 14 -46 18 -77 4 -32 13 -63 21 -69 8 -6 14
-17 14 -23 0 -6 4 -17 9 -25 7 -11 12 -11 32 2 13 9 51 21 84 28 53 10 64 10
93 -5 17 -9 32 -24 32 -34 1 -26 26 -67 34 -54 4 6 7 64 7 129 1 131 -20 286
-47 348 -14 33 -17 71 -17 210 0 153 2 175 22 217 31 67 36 145 21 341 -14
191 -4 165 -122 339 -21 32 -38 62 -38 68 0 5 -4 10 -9 10 -16 0 -32 65 -23
91 5 13 6 33 1 44 -12 31 -10 78 5 107 8 14 16 59 18 100 3 41 11 85 19 98 7
14 14 32 15 40 1 8 6 42 12 75 6 33 18 105 28 160 9 55 27 145 41 200 14 55
25 124 24 153 -1 28 2 52 6 52 53 0 109 754 63 840 -5 9 -13 107 -19 218 -9
197 -6 259 20 409 10 57 8 79 -21 225 -36 179 -48 203 -109 214 -20 4 -47 12
-61 19 -14 7 -44 15 -67 19 -23 3 -54 12 -70 20 -43 21 -93 37 -146 47 -27 4
-55 13 -62 19 -8 6 -62 14 -122 17 -92 5 -110 3 -122 -10 -11 -14 -9 -20 16
-44 17 -15 35 -43 43 -60 7 -20 19 -33 30 -33 26 0 80 -48 80 -71 0 -27 -25
-24 -120 13 -53 21 -96 46 -126 73 -44 41 -44 41 -44 111 0 60 5 80 35 139 32
64 34 75 32 155 -2 81 0 88 30 134 30 46 31 49 16 72 -11 18 -14 36 -9 67 11
75 29 141 49 185 15 34 21 76 26 205 4 89 6 182 5 207 -1 25 2 68 7 95 5 28
11 379 14 780 2 402 9 845 14 985 6 140 15 437 21 660 5 223 14 423 20 446 5
23 10 267 10 565 1 415 -2 548 -14 639 -29 226 -38 488 -22 675 10 127 19 182
35 218 27 63 71 214 71 247 1 33 30 97 118 260 86 160 151 250 247 344 81 79
222 193 314 256 35 23 73 50 83 59 28 24 103 66 208 117 52 25 97 50 98 55 2
5 10 9 17 9 15 0 75 65 75 82 0 6 8 29 19 52 10 23 28 73 41 111 21 65 100
235 119 260 5 5 23 36 41 69 17 32 38 65 46 73 23 23 28 63 15 127 -6 34 -15
82 -20 108 -5 26 -15 56 -21 68 -6 11 -10 44 -8 73 3 51 4 52 37 55 23 2 35 9
38 23 3 10 12 19 21 19 12 0 14 10 9 60 -6 55 -5 60 12 60 11 0 26 -6 33 -13
7 -7 21 -16 31 -20 12 -4 17 -17 17 -44 0 -30 8 -47 36 -78 20 -22 45 -59 56
-83 l19 -43 20 25 c10 13 19 29 19 34 0 15 49 52 68 52 19 0 62 39 62 56 0 7
18 15 40 19 22 4 40 11 40 16 0 5 7 9 15 9 9 0 18 7 21 15 4 8 15 15 25 15 10
0 19 5 19 10 0 6 7 10 16 10 29 0 178 80 204 109 27 30 85 48 96 30 12 -20
101 -1 128 26 14 14 36 25 49 25 14 0 38 7 53 15 16 8 37 15 47 15 10 0 17 8
17 20 0 11 5 20 10 20 6 0 26 16 46 35 19 19 41 35 48 35 8 0 17 11 20 25 5
18 15 27 36 32 17 3 30 9 30 14 0 5 7 9 15 9 8 0 25 14 37 31 13 16 38 39 56
51 43 27 60 54 64 103 1 22 14 76 29 119 21 59 26 91 22 125 -4 37 -1 50 16
68 22 23 38 72 25 74 -61 8 -103 5 -108 -7 -3 -8 -13 -14 -23 -14 -10 0 -33
-9 -51 -20 -35 -22 -67 -26 -77 -10 -14 23 -23 6 -29 -59 -8 -75 -19 -93 -76
-113 -29 -9 -35 -9 -44 5 -9 13 -11 13 -21 -6 -17 -35 -59 -50 -108 -40 -25 6
-52 5 -68 -1 -22 -7 -35 -5 -64 13 -22 12 -45 19 -56 16 -21 -7 -25 -20 -9
-30 13 -8 13 -42 0 -50 -22 -13 -163 -17 -170 -5 -6 10 -22 9 -71 -4 -34 -8
-65 -20 -68 -25 -3 -4 -20 -12 -37 -15 -25 -6 -37 -2 -62 19 -47 40 -89 49
-126 27 -26 -15 -30 -23 -28 -50 4 -38 -4 -40 -49 -9 -21 14 -34 31 -34 45 0
12 -8 31 -17 42 -22 25 -23 63 -3 84 8 8 15 22 15 30 0 9 5 16 12 16 7 0 21 9
33 19 164 153 168 157 161 184 -8 34 -44 43 -196 51 -111 6 -116 7 -142 35
-36 38 -35 52 4 81 23 17 51 25 107 31 103 9 282 59 310 85 12 11 10 14 -13
20 -15 3 -60 7 -99 9 -109 3 -115 4 -97 15 12 8 11 13 -7 38 l-22 30 24 22
c19 18 30 21 52 15 46 -13 120 -8 147 10 17 12 35 15 54 11 15 -4 50 -9 79
-11 77 -7 103 -20 103 -50 0 -19 -9 -29 -35 -42 -45 -21 -50 -38 -24 -79 23
-37 26 -37 123 -7 28 9 50 23 53 32 2 10 23 23 49 30 38 11 44 17 44 40 -1 16
-17 44 -44 75 l-43 49 -94 7 c-104 8 -257 35 -304 53 -34 13 -160 12 -214 -3
-20 -5 -54 -5 -77 -1 -46 9 -149 82 -157 111 -3 11 -22 27 -42 37 -36 17 -38
17 -78 -5 l-42 -23 -17 20 c-15 20 -14 60 3 71 19 13 99 125 99 140 0 9 5 21
11 27 11 11 17 20 52 81 9 17 24 64 32 104 9 40 20 77 25 82 6 6 10 17 10 26
0 9 11 27 24 40 14 12 34 42 46 66 26 57 19 93 -37 171 -25 34 -28 65 -12 132
8 36 7 47 -7 62 -24 27 -40 23 -53 -11 -5 -16 -17 -30 -25 -30 -9 0 -16 -6
-16 -12 0 -7 -10 3 -23 23 -23 38 -88 99 -105 99 -5 0 -15 6 -21 14 -7 8 -29
17 -51 21 -49 8 -81 31 -62 43 8 5 13 12 13 16 -3 20 0 26 9 21 14 -9 80 42
80 60 0 8 18 20 40 26 22 7 40 18 40 26 0 7 9 13 21 13 11 0 29 10 40 23 l18
22 1 -22 c0 -22 3 -23 90 -23 50 0 90 -4 90 -8 0 -5 12 -14 26 -21 22 -10 32
-8 61 9 19 11 46 20 62 20 15 0 31 4 37 9 21 20 144 53 196 53 35 -1 43 23 20
62 -19 32 -33 35 -102 21 -14 -2 -54 -9 -89 -15 -36 -6 -76 -17 -89 -26 -18
-12 -26 -13 -38 -3 -8 6 -17 9 -21 5 -10 -9 -43 25 -43 45 0 22 -20 29 -42 15
-24 -14 -34 0 -14 19 18 18 200 39 243 29 13 -4 43 1 66 10 53 20 108 26 125
13 8 -7 26 -4 53 8 36 17 47 17 102 6 34 -7 65 -18 68 -23 5 -8 36 -8 104 0
85 10 100 14 131 41 20 18 46 31 62 31 15 0 34 5 42 10 25 16 39 12 74 -26z
m-1115 -173 c15 -14 18 -20 8 -24 -17 -6 -51 19 -42 32 8 14 8 14 34 -8z m81
-18 c0 -7 -4 -13 -10 -13 -5 0 -10 12 -10 28 0 21 2 24 10 12 5 -8 10 -21 10
-27z m60 -63 c0 -22 -7 -25 -29 -11 -16 10 -6 31 15 31 8 0 14 -9 14 -20z
m-988 -432 c-5 -7 -12 -22 -15 -33 -4 -16 -5 -14 -6 7 -1 22 7 33 28 37 2 1
-1 -5 -7 -11z m31 -223 c-3 -8 0 -15 7 -15 9 0 11 -11 6 -37 -4 -21 -9 -92
-12 -158 -5 -114 -8 -134 -18 -124 -8 8 -8 323 -1 341 4 10 11 16 16 13 4 -3
6 -12 2 -20z m557 -85 c11 -7 12 -14 4 -27 -16 -26 -31 -26 -37 -2 -10 36 4
48 33 29z m-260 -73 c0 -29 -1 -29 -42 -23 -54 9 -72 24 -54 48 36 49 96 33
96 -25z m-330 -282 c0 -14 -4 -25 -9 -25 -4 0 -6 11 -3 25 2 14 6 25 8 25 2 0
4 -11 4 -25z m13 -192 c1 -18 6 -20 47 -15 25 3 48 9 52 15 3 6 38 9 78 8 57
-2 77 -6 94 -22 26 -26 80 -65 84 -61 1 1 7 2 12 2 17 0 11 -36 -10 -60 -11
-13 -20 -29 -20 -37 0 -7 -6 -13 -14 -13 -15 0 -63 -95 -69 -136 -2 -13 -13
-33 -25 -44 -12 -12 -22 -29 -22 -40 0 -15 -10 -20 -44 -25 -70 -11 -113 25
-169 140 -58 120 -79 274 -42 315 16 17 21 19 32 7 8 -8 15 -23 16 -34z m742
-714 c12 -19 -2 -21 -47 -5 l-43 15 42 1 c23 0 45 -5 48 -11z m1226 -689 c11
0 17 -4 14 -10 -8 -12 -62 -13 -69 -1 -8 12 6 22 22 16 7 -3 23 -5 33 -5z m49
0 c0 -5 -4 -10 -10 -10 -5 0 -10 5 -10 10 0 6 5 10 10 10 6 0 10 -4 10 -10z
m-145 -100 c3 -5 -1 -10 -9 -10 -9 0 -16 5 -16 10 0 6 4 10 9 10 6 0 13 -4 16
-10z m-1135 -270 c0 -5 -4 -10 -10 -10 -5 0 -10 5 -10 10 0 6 5 10 10 10 6 0
10 -4 10 -10z m-1328 -13701 c-15 -6 -30 -5 -40 1 -13 7 -8 9 23 9 35 0 37 -1
17 -10z m75 -25 c-3 -3 -12 -4 -19 -1 -8 3 -5 6 6 6 11 1 17 -2 13 -5z m74
-25 c20 -10 20 -11 3 -30 -21 -24 -41 -24 -52 -1 -19 36 8 54 49 31z m3982
-10724 c-8 -54 -37 -100 -99 -162 -128 -124 -455 -312 -673 -386 -84 -29 -111
-26 -111 13 0 26 4 29 43 35 77 12 151 37 235 79 114 56 118 59 195 113 204
143 279 212 349 324 9 14 25 34 34 44 17 17 18 17 25 -1 4 -11 5 -37 2 -59z
m215 -652 c38 -54 70 -129 83 -192 18 -91 6 -270 -22 -328 -11 -23 -24 -43
-29 -43 -4 0 -18 -21 -30 -47 -12 -27 -33 -60 -47 -74 -26 -28 -112 -65 -233
-99 -41 -12 -91 -28 -110 -35 -73 -28 -178 -45 -271 -45 -63 0 -112 -5 -140
-16 -94 -34 -225 -45 -599 -49 -133 -2 -206 -7 -260 -19 -41 -10 -119 -19
-172 -21 -75 -3 -106 -9 -140 -26 -53 -27 -132 -49 -179 -49 -24 0 -50 -10
-79 -31 -38 -28 -53 -32 -128 -37 -69 -4 -89 -9 -112 -29 -39 -33 -109 -63
-148 -63 -18 0 -46 -7 -62 -15 -16 -8 -61 -19 -100 -25 -39 -6 -86 -16 -104
-24 -19 -8 -65 -17 -103 -21 -37 -4 -93 -13 -123 -21 -30 -8 -82 -14 -117 -14
-34 0 -65 -4 -68 -10 -3 -5 -48 -10 -98 -10 -51 0 -108 -4 -127 -8 -19 -4
-147 -5 -285 -1 -216 5 -260 9 -325 28 -91 27 -115 40 -204 108 -123 95 -168
137 -188 177 -46 90 -26 233 24 170 41 -51 155 -158 182 -170 17 -8 38 -19 46
-24 74 -46 174 -69 325 -76 100 -5 145 -3 195 9 36 8 87 18 114 21 27 3 55 11
61 16 7 6 41 15 76 20 35 4 82 13 104 19 72 18 214 47 375 75 41 8 89 19 105
25 17 5 64 20 105 31 41 12 89 26 105 30 17 5 58 13 91 19 34 5 70 14 80 20
23 13 103 33 259 66 66 14 134 32 152 40 17 8 42 15 55 15 13 0 33 7 44 15 10
8 26 15 34 15 16 0 110 34 153 56 16 8 41 14 55 14 15 0 40 7 55 15 15 8 45
17 65 21 20 4 45 11 55 16 18 9 81 28 162 49 21 5 44 14 50 19 5 4 28 11 50
15 22 4 51 13 65 20 14 7 66 23 115 36 50 12 94 26 100 31 5 4 20 8 35 8 14 1
43 8 65 16 22 8 90 28 150 44 61 16 126 33 145 39 19 6 46 11 60 11 14 0 37 6
51 14 14 7 43 16 65 20 39 7 81 22 159 56 22 9 66 28 98 41 51 20 147 99 147
120 0 11 51 69 60 69 5 0 17 -12 28 -27z m-2241 -97 c1 -1 5 -20 9 -42 5 -36
3 -42 -21 -58 -15 -10 -45 -21 -66 -23 -34 -5 -39 -3 -44 20 -13 50 -2 81 35
100 29 14 74 16 87 3z m4548 -686 c7 -23 -14 -73 -50 -115 -46 -54 -97 -105
-106 -105 -4 0 -33 -32 -64 -71 -58 -72 -87 -85 -93 -42 -3 20 41 73 61 73 9
0 172 166 205 208 12 17 22 40 22 51 0 27 17 27 25 1z m143 -600 c11 -55 16
-124 15 -195 -2 -62 4 -155 13 -213 9 -57 13 -118 10 -136 -3 -18 -25 -59 -49
-92 -58 -83 -206 -224 -234 -224 -13 0 -23 -4 -23 -8 0 -13 -68 -40 -116 -47
-30 -5 -54 -18 -90 -53 -67 -63 -165 -112 -226 -112 -44 0 -48 -2 -53 -27 -3
-16 -11 -39 -18 -53 -18 -35 -105 -98 -142 -102 -24 -2 -30 -8 -31 -28 -1 -14
-2 -32 -3 -41 -1 -19 -56 -78 -86 -95 -11 -6 -30 -32 -43 -58 -14 -30 -34 -53
-54 -64 -18 -9 -51 -36 -74 -59 -23 -23 -67 -56 -98 -73 -31 -18 -65 -45 -76
-60 -19 -27 -134 -90 -163 -90 -6 0 -28 -10 -47 -22 -52 -33 -130 -58 -175
-57 -22 1 -78 -6 -125 -14 -47 -9 -130 -19 -185 -22 -55 -3 -148 -11 -207 -17
-123 -12 -453 4 -573 28 -38 8 -101 19 -140 25 -38 6 -77 15 -87 20 -9 5 -29
9 -45 9 -57 1 -215 50 -273 85 -109 66 -166 147 -155 219 4 22 11 46 15 51 4
6 11 24 14 40 4 17 17 44 30 60 l24 30 129 -1 c140 0 176 -11 210 -60 68 -96
182 -184 239 -184 13 0 39 -6 57 -14 73 -30 423 -37 502 -10 30 10 49 11 81 3
32 -8 49 -7 79 5 20 9 46 16 57 16 23 0 155 37 180 50 9 5 36 13 60 16 24 4
54 12 68 19 14 7 41 16 60 20 19 4 47 16 61 26 15 10 63 34 107 53 65 28 221
122 242 147 3 3 29 19 57 35 29 16 53 32 53 37 0 4 6 7 13 7 21 0 272 245 375
367 121 143 164 202 204 280 17 34 49 86 72 117 23 31 59 82 81 113 22 32 106
123 187 203 81 80 152 157 158 170 5 14 22 43 35 65 14 22 31 51 37 64 12 23
13 22 31 -20 10 -24 26 -82 35 -129z m-1274 -295 c25 -37 20 -82 -10 -110 -15
-14 -33 -25 -39 -25 -24 0 -54 35 -60 70 -13 73 71 123 109 65z m-584 -1695
c-19 -13 -30 -13 -30 0 0 6 10 10 23 10 18 0 19 -2 7 -10z"/>
<path d="M13122 36590 c0 -14 2 -19 5 -12 2 6 2 18 0 25 -3 6 -5 1 -5 -13z"/>
<path d="M13015 36570 c-3 -5 1 -10 9 -10 9 0 16 5 16 10 0 6 -4 10 -9 10 -6
0 -13 -4 -16 -10z"/>
<path d="M13339 36317 c-13 -5 -51 -13 -84 -18 -33 -5 -73 -16 -90 -23 -16 -8
-59 -19 -95 -26 -35 -6 -77 -21 -93 -32 -20 -15 -37 -19 -59 -14 -21 4 -40 1
-57 -11 -31 -20 -101 -89 -101 -100 0 -21 103 -102 148 -117 28 -10 55 -22 60
-29 6 -7 13 -42 17 -79 6 -55 4 -73 -9 -94 -17 -24 -16 -26 10 -46 24 -20 26
-26 21 -75 -4 -40 -2 -53 7 -53 8 0 19 -7 26 -15 7 -8 23 -15 35 -15 13 0 47
-11 77 -25 45 -21 68 -25 148 -25 85 0 97 2 108 20 10 17 9 25 -9 49 -27 37
-20 57 28 76 38 15 38 15 35 68 -5 68 14 88 73 78 35 -6 40 -10 40 -34 -1 -20
4 -27 19 -27 32 0 86 23 86 36 0 25 -52 54 -96 54 -25 0 -49 6 -58 15 -8 8
-30 18 -48 21 -58 10 -60 11 -46 34 11 16 10 22 -7 34 -18 13 -19 15 -3 21 9
4 39 2 65 -5 26 -6 63 -14 81 -17 17 -3 32 -9 32 -14 0 -5 7 -9 15 -9 28 0
-67 81 -129 110 -37 17 -63 35 -63 44 0 21 128 65 199 69 34 1 58 7 58 13 0
22 -96 104 -121 104 -10 0 -34 14 -54 31 -29 26 -45 32 -89 34 -29 1 -64 -3
-77 -8z m-89 -522 c6 -8 14 -32 17 -55 l6 -40 -36 0 c-24 0 -46 9 -67 27 l-32
27 31 28 c35 31 62 36 81 13z m190 -5 c0 -5 -12 -10 -26 -10 -14 0 -23 4 -19
10 3 6 15 10 26 10 10 0 19 -4 19 -10z"/>
<path d="M14690 35350 c0 -65 3 -90 10 -80 5 8 10 44 10 80 0 36 -5 72 -10 80
-7 10 -10 -15 -10 -80z"/>
<path d="M14554 35202 c-20 -13 -36 -54 -30 -77 8 -31 -9 -75 -29 -75 -8 0
-15 -4 -15 -8 0 -4 -16 -14 -35 -21 -37 -13 -49 -46 -21 -57 19 -7 74 34 92
69 12 21 22 27 49 27 48 0 75 40 63 95 -11 50 -41 69 -74 47z"/>
<path d="M12813 35130 c-48 -20 -12 -50 59 -50 90 0 113 23 47 46 -41 15 -76
16 -106 4z"/>
<path d="M14370 33763 c-21 -9 -30 -24 -30 -56 0 -38 -56 -179 -101 -252 -20
-33 -48 -80 -62 -105 -14 -25 -36 -57 -49 -72 -13 -15 -31 -37 -41 -50 -28
-36 -145 -163 -229 -249 -43 -44 -78 -84 -78 -89 0 -6 -4 -10 -10 -10 -5 0
-10 -6 -10 -12 0 -16 -84 -108 -97 -108 -6 0 -21 -14 -34 -31 -28 -36 -66 -83
-94 -114 -11 -13 -36 -42 -55 -66 -61 -74 -104 -116 -128 -124 -12 -3 -30 -19
-40 -33 -19 -30 -58 -72 -67 -72 -13 0 -45 -42 -45 -60 0 -11 -7 -20 -15 -20
-18 0 -65 -47 -65 -65 0 -8 -6 -15 -14 -15 -8 0 -16 -6 -19 -12 -3 -10 -9 -10
-26 0 -11 6 -39 12 -61 12 -40 0 -40 0 -40 39 0 22 5 41 12 43 9 3 9 6 0 12
-7 4 -12 2 -12 -3 0 -6 -18 -11 -40 -11 -35 0 -40 3 -40 24 0 15 -7 26 -20 29
-11 3 -24 17 -30 31 -5 14 -14 26 -20 26 -5 0 -10 6 -10 13 0 7 -23 35 -50 62
-28 27 -60 69 -71 92 -11 24 -25 43 -30 43 -5 0 -9 7 -9 16 0 9 -9 27 -20 41
-11 14 -20 34 -20 44 0 17 -36 59 -50 59 -15 0 -41 -77 -47 -134 -5 -54 -2
-70 22 -119 15 -32 31 -81 36 -110 17 -106 22 -122 36 -138 8 -9 16 -39 19
-65 5 -45 41 -180 66 -246 5 -14 10 -68 11 -120 1 -87 -1 -97 -32 -156 -18
-34 -37 -65 -42 -68 -5 -3 -9 -12 -9 -20 0 -12 6 -11 31 7 39 28 86 103 94
151 4 21 10 38 14 38 12 0 51 -45 51 -58 0 -6 16 -36 35 -66 19 -30 35 -61 35
-69 0 -33 44 -150 64 -168 l21 -20 8 48 c4 26 13 64 19 83 6 19 15 53 19 75
13 69 59 186 87 217 10 12 14 38 13 87 l-1 70 72 76 c54 56 92 85 147 113 40
20 87 48 103 62 41 35 116 135 124 164 3 14 12 30 20 37 8 6 14 16 14 21 0 5
15 30 33 56 17 26 37 55 42 64 85 143 147 238 157 238 4 0 8 5 8 11 0 9 46 77
82 120 7 9 18 23 23 32 20 32 71 103 116 162 43 57 91 123 150 210 15 22 44
58 63 80 20 22 36 43 36 47 0 4 21 33 47 65 91 111 151 263 106 263 -10 0 -27
2 -38 5 -11 2 -27 1 -35 -2z"/>
<path d="M12542 31430 c0 -14 2 -19 5 -12 2 6 2 18 0 25 -3 6 -5 1 -5 -13z"/>
<path d="M15612 29820 c0 -14 2 -19 5 -12 2 6 2 18 0 25 -3 6 -5 1 -5 -13z"/>
<path d="M15602 29685 c0 -16 2 -22 5 -12 2 9 2 23 0 30 -3 6 -5 -1 -5 -18z"/>
<path d="M15556 29622 c-21 -46 -26 -186 -7 -205 10 -9 12 2 10 50 -2 46 2 65
14 78 18 17 25 115 9 115 -5 0 -17 -17 -26 -38z"/>
<path d="M15574 29339 c8 -52 37 -139 47 -139 9 0 0 49 -17 87 -8 17 -14 42
-14 56 0 14 -5 29 -12 33 -8 5 -9 -5 -4 -37z"/>
<path d="M15661 29060 c0 -3 6 -27 14 -55 l14 -50 0 55 c0 35 -3 50 -8 41 -7
-11 -9 -11 -14 0 -3 8 -6 12 -6 9z"/>
<path d="M15700 28951 c0 -6 5 -13 10 -16 6 -3 10 1 10 9 0 9 -4 16 -10 16 -5
0 -10 -4 -10 -9z"/>
<path d="M16114 25395 c-8 -32 -8 -83 1 -176 7 -67 5 -82 -13 -115 -23 -44
-29 -69 -44 -204 -5 -52 -13 -97 -17 -100 -4 -3 -16 -75 -25 -160 -10 -85 -24
-173 -32 -195 -8 -23 -14 -54 -14 -70 0 -45 -26 -156 -44 -190 -9 -16 -13 -38
-10 -48 3 -10 -1 -26 -10 -36 -23 -26 -66 -165 -66 -216 0 -25 -4 -45 -10 -45
-5 0 -12 -22 -16 -50 -4 -27 -13 -55 -20 -61 -8 -6 -14 -27 -14 -46 0 -19 -15
-67 -34 -106 -40 -83 -90 -242 -83 -261 6 -15 -38 -86 -53 -86 -5 0 -12 -15
-15 -33 -4 -19 -18 -46 -31 -60 -29 -31 -31 -51 -5 -44 23 6 53 -40 34 -51 -6
-4 -14 -19 -18 -34 -4 -15 -13 -32 -21 -39 -9 -7 -14 -31 -14 -65 0 -30 -6
-58 -13 -66 -8 -7 -17 -38 -20 -69 -7 -58 -41 -149 -57 -149 -4 0 -11 -13 -15
-30 -4 -16 -10 -30 -15 -30 -5 0 -12 -25 -16 -56 -10 -80 -44 -108 -147 -119
-49 -6 -57 -9 -52 -23 4 -9 12 -38 18 -64 13 -54 22 -60 31 -23 6 24 42 65 57
65 17 0 20 -45 8 -111 -10 -54 -10 -81 -1 -117 6 -26 14 -78 18 -116 3 -39 13
-76 20 -84 8 -7 14 -33 14 -57 0 -26 5 -47 13 -52 8 -4 17 -30 21 -57 3 -27 8
-51 10 -53 2 -3 13 2 25 9 21 13 30 58 11 58 -5 0 -10 9 -10 19 0 11 -4 23
-10 26 -18 11 -11 24 15 31 25 6 26 9 23 66 -3 53 0 62 21 79 13 10 18 19 12
19 -7 0 -11 28 -11 80 0 64 3 80 15 80 9 0 15 9 15 25 0 15 6 25 14 25 27 0
37 79 13 102 -8 7 -12 20 -9 30 2 9 -3 26 -11 38 -8 12 -13 29 -10 38 2 10 -2
30 -10 45 -12 22 -12 36 -4 63 7 24 13 31 19 22 5 -8 11 -9 16 -3 4 6 19 16
33 24 16 8 29 25 33 41 3 16 21 44 41 64 19 19 35 44 35 55 0 10 6 21 14 24 8
3 20 31 26 62 6 31 18 59 26 62 28 10 44 62 47 144 2 63 7 84 20 94 10 7 17
26 17 44 0 17 10 51 23 76 20 41 25 44 60 45 37 0 37 0 37 40 0 22 -4 40 -10
40 -22 0 -3 125 23 152 7 7 16 21 20 31 4 10 11 16 16 12 6 -3 25 9 43 27 20
19 28 33 20 36 -15 5 -16 59 -1 64 5 2 10 28 10 58 1 58 15 120 28 120 4 0 13
18 20 41 7 22 19 43 27 46 9 3 14 20 14 53 0 26 6 63 14 81 7 19 21 79 31 133
13 75 23 106 41 125 13 14 26 39 28 56 20 134 30 186 37 191 5 3 9 16 9 30 0
14 6 24 14 24 14 0 19 30 32 173 5 47 11 67 20 67 8 0 14 7 14 16 0 9 9 29 21
45 11 16 23 45 26 64 3 20 11 35 19 35 8 0 14 7 14 15 0 14 17 38 52 76 15 16
28 18 80 13 35 -4 95 -15 133 -26 39 -11 93 -23 121 -29 94 -17 225 -66 357
-134 26 -14 55 -25 65 -26 9 0 42 -8 72 -18 56 -19 80 -14 80 15 0 10 -13 14
-41 14 -29 0 -50 7 -73 25 -17 14 -35 29 -41 33 -16 11 -116 50 -161 61 -23 6
-58 22 -78 36 -20 14 -44 25 -52 25 -8 0 -45 16 -83 35 -37 19 -74 35 -82 35
-16 0 -215 95 -238 114 -8 6 -37 16 -65 22 -28 6 -64 16 -81 22 -71 26 -256
72 -289 72 -29 0 -37 -4 -42 -25z"/>
<path d="M12083 21543 c-26 -59 -39 -217 -22 -278 6 -22 16 -67 22 -100 7 -33
22 -76 33 -95 93 -153 93 -153 100 -135 4 10 0 48 -9 84 -8 36 -19 89 -22 116
-4 28 -12 56 -18 63 -6 7 -14 63 -18 124 -5 63 -14 117 -21 126 -7 8 -15 44
-18 79 l-5 64 -22 -48z"/>
<path d="M12231 20864 c0 -11 3 -14 6 -6 3 7 2 16 -1 19 -3 4 -6 -2 -5 -13z"/>
<path d="M12227 20747 c-4 -30 -14 -72 -23 -93 -14 -33 -16 -66 -11 -223 4
-101 9 -186 12 -189 11 -12 34 35 40 83 11 98 11 453 -1 465 -8 8 -13 -3 -17
-43z"/>
<path d="M10945 20102 c-16 -11 -34 -49 -28 -56 4 -3 13 -6 22 -6 9 -1 34 -9
56 -20 22 -11 46 -19 52 -20 7 0 16 -12 19 -26 4 -16 10 -22 16 -16 6 6 6 17
-1 30 -6 10 -8 22 -5 24 3 3 -10 17 -28 32 -18 14 -42 35 -53 46 -22 21 -34
24 -50 12z"/>
<path d="M13366 20011 c-3 -5 -43 -12 -88 -16 -69 -6 -158 -29 -158 -40 0 -11
129 -131 199 -185 47 -36 95 -75 108 -88 12 -12 33 -27 45 -33 57 -25 76 -40
140 -106 47 -48 68 -73 68 -82 0 -5 18 -27 40 -50 22 -22 40 -45 40 -50 0 -19
73 -81 94 -81 15 0 27 -9 34 -25 6 -14 16 -25 22 -25 6 0 10 -44 10 -118 l0
-119 -40 -19 c-36 -17 -40 -23 -40 -56 l0 -38 55 0 55 0 0 -80 c0 -44 4 -80 9
-80 5 0 13 -9 16 -20 3 -11 12 -20 20 -20 20 0 22 -15 23 -176 0 -82 5 -177
11 -210 6 -32 10 -91 8 -131 -2 -69 5 -95 21 -79 8 9 5 699 -4 853 -5 80 -10
108 -25 127 -15 19 -18 34 -13 64 5 31 2 42 -12 53 -11 8 -21 23 -22 34 -2 11
-8 25 -12 30 -12 15 -32 125 -39 221 -7 89 -3 83 -106 166 -38 30 -81 65 -94
77 -13 11 -27 21 -31 21 -11 0 -174 161 -229 228 -37 43 -60 62 -76 62 -13 0
-26 -4 -29 -9z"/>
<path d="M11035 19721 c-11 -5 -28 -18 -38 -29 -18 -20 -18 -20 2 -27 11 -3
34 1 51 10 33 17 33 17 24 39 -7 18 -10 18 -39 7z"/>
<path d="M16668 19133 c-5 -22 36 -143 62 -186 29 -48 50 -44 50 9 0 31 -9 58
-30 92 -16 27 -30 52 -30 55 0 10 -33 47 -41 47 -4 0 -9 -8 -11 -17z"/>
<path d="M14045 18051 c-3 -6 -1 -45 4 -87 6 -41 11 -95 11 -119 0 -45 14 -68
22 -37 3 10 1 47 -4 83 -5 35 -7 80 -4 99 5 36 -16 81 -29 61z"/>
<path d="M15640 13295 c0 -30 20 -85 31 -85 5 0 15 16 23 35 8 19 21 35 27 35
25 0 -8 21 -45 30 -33 7 -36 6 -36 -15z"/>
</g>
</svg>
